<?xml version="1.0" encoding="UTF-8"?>
<svg width="14px" height="16px" viewBox="0 0 14 16" version="1.1" xmlns="http://www.w3.org/2000/svg" xmlns:xlink="http://www.w3.org/1999/xlink">
    <!-- Generator: Sketch 45.1 (43504) - http://www.bohemiancoding.com/sketch -->
    <title>android-logo</title>
    <desc>Created with Sketch.</desc>
    <defs></defs>
    <g id="Page-1" stroke="none" stroke-width="1" fill="none" fill-rule="evenodd">
        <g id="Success-Copy-22" transform="translate(-608.000000, -596.000000)" fill="#DCDCDC">
            <g id="android-logo" transform="translate(608.000000, 596.000000)">
                <path d="M0.975716484,5.18872308 C0.436969231,5.18872308 0.0002,5.62536044 2.1978022e-06,6.16408571 L2.1978022e-06,6.16408571 L2.1978022e-06,7.82314066 L2.1978022e-06,8.60336044 L2.1978022e-06,10.2624374 L2.1978022e-06,10.2624374 C0.0002,10.8011187 0.436969231,11.2378 0.975716484,11.2378 C1.51446374,11.2378 1.95123297,10.8011187 1.95143077,10.2624374 L1.95143077,10.2624374 L1.95143077,8.60336044 L1.95143077,7.82314066 L1.95143077,6.16408571 L1.95143077,6.16408571 C1.95123297,5.62536044 1.51446374,5.18872308 0.975716484,5.18872308" id="Fill-1"></path>
                <path d="M13.4322857,6.16408352 C13.4321099,5.62535824 12.9952967,5.18872088 12.4565714,5.18872088 C11.9178242,5.18872088 11.4810989,5.62535824 11.4809231,6.16408352 L11.4808791,6.16408352 L11.4808791,7.82313846 L11.4808791,8.60335824 L11.4808791,10.2624352 L11.4809231,10.2624352 C11.4810989,10.8011165 11.9178242,11.2377978 12.4565714,11.2377978 C12.9952967,11.2377978 13.4321099,10.8011165 13.4322857,10.2624352 L13.4322857,8.60335824 L13.4322857,7.82313846 L13.4322857,6.16408352 Z" id="Fill-3"></path>
                <path d="M2.34952527,5.35909451 L2.30104176,5.35909451 L2.30104176,11.7910725 C2.30104176,12.3277319 2.74011868,12.7668088 3.27675604,12.7668088 L4.09906374,12.7668088 L4.09906374,13.3494462 L4.09906374,15.008567 L4.09906374,15.008567 C4.09923956,15.5472484 4.53600879,15.9839297 5.07475604,15.9839297 C5.6135033,15.9839297 6.05027253,15.5472484 6.05047033,15.008567 L6.05047033,13.3494462 L6.05047033,12.7668088 L7.38181099,12.7668088 L7.38181099,13.3494462 L7.38181099,15.008567 C7.38205275,15.5472484 7.8188,15.9839297 8.35754725,15.9839297 C8.89627253,15.9839297 9.33304176,15.5472484 9.33326154,15.008567 L9.33326154,13.3494462 L9.33326154,12.7668088 L10.1555473,12.7668088 C10.6922066,12.7668088 11.1312396,12.3277319 11.1312396,11.7910725 L11.1312396,5.35909451 L11.1153275,5.35909451 L2.34952527,5.35909451 Z" id="Fill-5"></path>
                <path d="M4.70779341,2.6271033 C4.9368044,2.6271033 5.12247473,2.81275165 5.12247473,3.04178462 C5.12247473,3.2707956 4.9368044,3.45644396 4.70779341,3.45644396 C4.47878242,3.45644396 4.29311209,3.2707956 4.29311209,3.04178462 C4.29311209,2.81275165 4.47878242,2.6271033 4.70779341,2.6271033 L4.70779341,2.6271033 Z M8.72451868,2.6271033 C8.95352967,2.6271033 9.13917802,2.81275165 9.13917802,3.04178462 C9.13917802,3.2707956 8.95352967,3.45644396 8.72451868,3.45644396 C8.49550769,3.45644396 8.30985934,3.2707956 8.30985934,3.04178462 C8.30985934,2.81275165 8.49550769,2.6271033 8.72451868,2.6271033 L8.72451868,2.6271033 Z M11.1231341,5.01760879 L11.1231341,4.54727912 C11.1103868,4.41382857 11.090211,4.28231209 11.0629143,4.15299341 C10.8213319,3.0087956 10.0230242,2.03958681 8.92807912,1.47675165 L9.60166154,0.234158242 C9.6433978,0.157169231 9.6148044,0.0609274725 9.53783736,0.0192131868 C9.46082637,-0.022567033 9.36462857,0.00607032967 9.32291429,0.0830373626 L8.64078242,1.34147692 C8.06111209,1.09233407 7.41109011,0.95250989 6.72427692,0.95250989 C6.0322989,0.95250989 5.37750769,1.09431209 4.79454066,1.34699341 L4.10941978,0.0830373626 C4.06768352,0.00607032967 3.97146374,-0.022567033 3.89447473,0.0192131868 C3.81748571,0.0609274725 3.78891429,0.157169231 3.83065055,0.234158242 L4.50777143,1.48336703 C3.46405714,2.0240044 2.69181538,2.93455385 2.41794725,4.01352088 C2.34689231,4.29347692 2.30917802,4.58470769 2.30917802,4.88382857 C2.30917802,4.92861978 2.31034286,4.97316923 2.31201319,5.01760879 L11.1231341,5.01760879 Z" id="Fill-7"></path>
            </g>
        </g>
    </g>
</svg>