<?xml version="1.0" encoding="UTF-8"?>
<svg width="13px" height="16px" viewBox="0 0 13 16" version="1.1" xmlns="http://www.w3.org/2000/svg" xmlns:xlink="http://www.w3.org/1999/xlink">
    <!-- Generator: Sketch 45.1 (43504) - http://www.bohemiancoding.com/sketch -->
    <title>ios-logo</title>
    <desc>Created with Sketch.</desc>
    <defs>
        <polygon id="path-1" points="0 12.3076817 0 0.0172679847 12.9036455 0.0172679847 12.9036455 12.3076817"></polygon>
    </defs>
    <g id="Page-1" stroke="none" stroke-width="1" fill="none" fill-rule="evenodd">
        <g id="Success-Copy-22" transform="translate(-586.000000, -595.000000)">
            <g id="ios-logo" transform="translate(586.000000, 595.000000)">
                <path d="M6.83806792,1.39260223 C7.83166403,0.00678253781 9.21302495,0 9.21302495,0 C9.21302495,0 9.41844664,1.30293077 8.43140893,2.55806831 C7.37744582,3.89827675 6.17944656,3.6789747 6.17944656,3.6789747 C6.17944656,3.6789747 5.95452359,2.62494729 6.83806792,1.39260223" id="Fill-1" fill="#DCDCDC"></path>
                <g id="Group-5" transform="translate(0.000000, 3.692308)">
                    <mask id="mask-2" fill="white">
                        <use xlink:href="#path-1"></use>
                    </mask>
                    <g id="Clip-4"></g>
                    <path d="M6.56254908,0.769127098 C7.09759567,0.769127098 8.09054041,0.0172679847 9.38303012,0.0172679847 C11.6078275,0.0172679847 12.4830345,1.63568965 12.4830345,1.63568965 C12.4830345,1.63568965 10.7712338,2.53040306 10.7712338,4.70144808 C10.7712338,7.1505991 12.9036455,7.99459312 12.9036455,7.99459312 C12.9036455,7.99459312 11.4129933,12.2839169 9.3995675,12.2839169 C8.47477443,12.2839169 7.75586652,11.6467878 6.78146132,11.6467878 C5.78851658,11.6467878 4.80311246,12.3076817 4.16135298,12.3076817 C2.32276576,12.3076817 -7.80065005e-06,8.23888619 -7.80065005e-06,4.9682831 C-7.80065005e-06,1.75039309 1.96609404,0.0623518857 3.81016771,0.0623518857 C5.00899762,0.0623518857 5.93930314,0.769127098 6.56254908,0.769127098" id="Fill-3" fill="#DCDCDC" mask="url(#mask-2)"></path>
                </g>
            </g>
        </g>
    </g>
</svg>