<?xml version="1.0" encoding="UTF-8"?>
<svg width="16px" height="16px" viewBox="0 0 16 16" version="1.1" xmlns="http://www.w3.org/2000/svg" xmlns:xlink="http://www.w3.org/1999/xlink">
    <!-- Generator: Sketch 45.1 (43504) - http://www.bohemiancoding.com/sketch -->
    <title>wp-logo</title>
    <desc>Created with Sketch.</desc>
    <defs></defs>
    <g id="Page-1" stroke="none" stroke-width="1" fill="none" fill-rule="evenodd">
        <g id="Success-Copy-22" transform="translate(-631.000000, -596.000000)" fill="#DCDCDC">
            <g id="wp-logo" transform="translate(631.000000, 596.000000)">
                <path d="M7.27811253,1.31877825 C10.1311433,0.853000473 13.0423868,0.445397636 15.8953797,0.0378326241 L15.8953797,0.154295981 L15.8953797,7.60708085 C13.0423868,7.60708085 10.1311433,7.66529362 7.27811253,7.66529362 L7.27811253,1.31877825 Z" id="Fill-1"></path>
                <path d="M0,2.30859953 C2.15432624,1.95924728 4.30865248,1.6681078 6.52119149,1.43521891 L6.52119149,7.66530875 C4.30865248,7.66530875 2.15432624,7.72352151 0,7.72352151 L0,2.30859953 Z" id="Fill-4"></path>
                <path d="M0,8.36400946 C2.15432624,8.36400946 4.30865248,8.42222222 6.52119149,8.36400946 L6.52119149,14.6522742 C4.30865248,14.3611726 2.15432624,14.0700331 0,13.7788936 L0,8.36400946 Z" id="Fill-6"></path>
                <path d="M7.27811253,8.42222222 L15.8953797,8.42222222 L15.8953797,15.6421182 L15.8953797,15.9914326 C13.0423868,15.5256548 10.1311433,15.1763026 7.27811253,14.7687376 L7.27811253,8.42222222 Z" id="Fill-8"></path>
            </g>
        </g>
    </g>
</svg>